<svg xmlns="http://www.w3.org/2000/svg" version="1.1" xmlns:xlink="http://www.w3.org/1999/xlink" xmlns:svgjs="http://svgjs.dev/svgjs" width="1000" height="371" viewBox="0 0 1000 371"><g transform="matrix(1,0,0,1,-0.6060606060606233,-0.3389174708885889)"><svg viewBox="0 0 396 147" data-background-color="#f5efe7" preserveAspectRatio="xMidYMid meet" height="371" width="1000" xmlns="http://www.w3.org/2000/svg" xmlns:xlink="http://www.w3.org/1999/xlink"><g id="tight-bounds" transform="matrix(1,0,0,1,0.2400000000000091,0.13428805450303116)"><svg viewBox="0 0 395.52 146.73142389099394" height="146.73142389099394" width="395.52"><g><svg viewBox="0 0 395.52 146.73142389099394" height="146.73142389099394" width="395.52"><g><svg viewBox="0 0 395.52 146.73142389099394" height="146.73142389099394" width="395.52"><g><svg viewBox="0 0 395.52 146.73142389099394" height="146.73142389099394" width="395.52"><g id="textblocktransform"><svg viewBox="0 0 395.52 146.73142389099394" height="146.73142389099394" width="395.52" id="textblock"><g><svg viewBox="0 0 395.52 101.35923287672803" height="101.35923287672803" width="395.52"><rect width="395.52" height="101.35923287672803" x="0" y="0" opacity="1" fill="#213555" data-fill-palette-color="tertiary"></rect><g transform="matrix(1,0,0,1,23.461705032,23.461705032)"><svg width="348.596589936" viewBox="3.59 -36.36 232.84 36.36" height="54.43582281272803" data-palette-color="#f5efe7"><path d="M3.59-36.36L10.17-36.36 10.17 0 3.59 0 3.59-36.36ZM43.89 0L37.39 0 27.13-36.36 34.21-36.36 40.76-9.64 41.1-9.64 48.1-36.36 54.54-36.36 61.55-9.62 61.87-9.62 68.43-36.36 75.51-36.36 65.25 0 58.75 0 51.47-25.51 51.18-25.51 43.89 0ZM91.03-28.91L81.33 0 74.3 0 87.1-36.36 95.23-36.36 108.05 0 101.02 0 91.31-28.91 91.03-28.91ZM81.56-8.97L81.56-14.26 100.74-14.26 100.74-8.97 81.56-8.97ZM136.18-36.36L142.73-36.36 142.73 0 136.87 0 119.73-24.77 119.43-24.77 119.43 0 112.85 0 112.85-36.36 118.74-36.36 135.86-11.58 136.18-11.58 136.18-36.36ZM159.52-30.84L148.28-30.84 148.28-36.36 177.3-36.36 177.3-30.84 166.06-30.84 166.06 0 159.52 0 159.52-30.84ZM195.28-36.36L201.86-36.36 201.86 0 195.28 0 195.28-36.36ZM218.66-30.84L207.42-30.84 207.42-36.36 236.43-36.36 236.43-30.84 225.19-30.84 225.19 0 218.66 0 218.66-30.84Z" opacity="1" transform="matrix(1,0,0,1,0,0)" fill="#f5efe7" class="wordmark-text-0" data-fill-palette-color="quaternary" id="text-0"></path></svg></g></svg></g><g transform="matrix(1,0,0,1,0,113.09008539272803)"><svg viewBox="0 0 395.52 33.641338498265924" height="33.641338498265924" width="395.52"><g transform="matrix(1,0,0,1,0,0)"><svg width="395.52" viewBox="0.65 -36.5 560.22 47.65" height="33.641338498265924" data-palette-color="#213555"><path d="M0.65-35.5L5.6-35.5 16.35-17 27.2-35.5 32.1-35.5 18.6-12.95 18.6 0 14.1 0 14.1-13.05 0.65-35.5ZM80.98 0.5L80.98 0.5Q78.03 0.5 75.63-0.58 73.23-1.65 71.48-3.53 69.73-5.4 68.78-7.85 67.83-10.3 67.83-13L67.83-13Q67.83-15.75 68.78-18.2 69.73-20.65 71.48-22.53 73.23-24.4 75.65-25.48 78.08-26.55 81.03-26.55L81.03-26.55Q83.93-26.55 86.33-25.48 88.73-24.4 90.5-22.53 92.28-20.65 93.23-18.2 94.18-15.75 94.18-13L94.18-13Q94.18-10.3 93.23-7.85 92.28-5.4 90.53-3.53 88.78-1.65 86.35-0.58 83.93 0.5 80.98 0.5ZM72.33-12.95L72.33-12.95Q72.33-10.25 73.5-8.05 74.68-5.85 76.63-4.58 78.58-3.3 80.98-3.3L80.98-3.3Q83.38-3.3 85.35-4.6 87.33-5.9 88.5-8.13 89.68-10.35 89.68-13.05L89.68-13.05Q89.68-15.75 88.5-17.95 87.33-20.15 85.35-21.45 83.38-22.75 80.98-22.75L80.98-22.75Q78.58-22.75 76.63-21.43 74.68-20.1 73.5-17.9 72.33-15.7 72.33-12.95ZM137.11-10.45L137.11-10.45 137.11-26.1 141.51-26.1 141.51-11.3Q141.51-7.3 142.91-5.3 144.31-3.3 147.06-3.3L147.06-3.3Q148.86-3.3 150.53-4.08 152.21-4.85 153.56-6.3 154.91-7.75 155.66-9.75L155.66-9.75 155.66-26.1 160.06-26.1 160.06-5Q160.06-4.2 160.38-3.83 160.71-3.45 161.46-3.4L161.46-3.4 161.46 0Q160.71 0.1 160.28 0.13 159.86 0.15 159.46 0.15L159.46 0.15Q158.21 0.15 157.31-0.63 156.41-1.4 156.36-2.55L156.36-2.55 156.26-5.6Q154.56-2.7 151.68-1.1 148.81 0.5 145.41 0.5L145.41 0.5Q141.31 0.5 139.21-2.27 137.11-5.05 137.11-10.45ZM266.12 0.3L266.12 0.3Q263.47 0.3 261.24-0.78 259.02-1.85 257.42-3.73 255.82-5.6 254.94-8 254.07-10.4 254.07-13L254.07-13Q254.07-15.75 254.94-18.2 255.82-20.65 257.44-22.53 259.07-24.4 261.27-25.48 263.47-26.55 266.17-26.55L266.17-26.55Q269.42-26.55 271.84-24.95 274.27-23.35 275.92-20.9L275.92-20.9 275.92-26.1 279.82-26.1 279.82-0.3Q279.82 3.4 278.04 5.95 276.27 8.5 273.24 9.83 270.22 11.15 266.52 11.15L266.52 11.15Q262.12 11.15 259.32 9.6 256.52 8.05 254.67 5.4L254.67 5.4 257.22 3.15Q258.77 5.45 261.24 6.6 263.72 7.75 266.52 7.75L266.52 7.75Q268.92 7.75 270.94 6.88 272.97 6 274.19 4.2 275.42 2.4 275.42-0.3L275.42-0.3 275.42-4.9Q273.97-2.5 271.44-1.1 268.92 0.3 266.12 0.3ZM267.47-3.3L267.47-3.3Q268.87-3.3 270.17-3.8 271.47-4.3 272.57-5.13 273.67-5.95 274.42-7 275.17-8.05 275.42-9.15L275.42-9.15 275.42-16.65Q274.72-18.45 273.42-19.83 272.12-21.2 270.47-21.98 268.82-22.75 267.07-22.75L267.07-22.75Q265.07-22.75 263.49-21.9 261.92-21.05 260.82-19.63 259.72-18.2 259.12-16.45 258.52-14.7 258.52-12.9L258.52-12.9Q258.52-10.95 259.22-9.22 259.92-7.5 261.12-6.15 262.32-4.8 263.97-4.05 265.62-3.3 267.47-3.3ZM336.15 0.5L336.15 0.5Q333.2 0.5 330.8-0.58 328.4-1.65 326.65-3.53 324.9-5.4 323.95-7.85 323-10.3 323-13L323-13Q323-15.75 323.95-18.2 324.9-20.65 326.65-22.53 328.4-24.4 330.82-25.48 333.25-26.55 336.2-26.55L336.2-26.55Q339.1-26.55 341.5-25.48 343.9-24.4 345.67-22.53 347.45-20.65 348.4-18.2 349.35-15.75 349.35-13L349.35-13Q349.35-10.3 348.4-7.85 347.45-5.4 345.7-3.53 343.95-1.65 341.52-0.58 339.1 0.5 336.15 0.5ZM327.5-12.95L327.5-12.95Q327.5-10.25 328.67-8.05 329.85-5.85 331.8-4.58 333.75-3.3 336.15-3.3L336.15-3.3Q338.55-3.3 340.52-4.6 342.5-5.9 343.67-8.13 344.85-10.35 344.85-13.05L344.85-13.05Q344.85-15.75 343.67-17.95 342.5-20.15 340.52-21.45 338.55-22.75 336.15-22.75L336.15-22.75Q333.75-22.75 331.8-21.43 329.85-20.1 328.67-17.9 327.5-15.7 327.5-12.95ZM404.58-4.8L405.63-1.3Q405.08-1.05 404.13-0.65 403.18-0.25 401.93 0.05 400.68 0.35 399.28 0.35L399.28 0.35Q397.68 0.35 396.33-0.23 394.98-0.8 394.18-2.02 393.38-3.25 393.38-5.1L393.38-5.1 393.38-22.65 389.83-22.65 389.83-26.1 393.38-26.1 393.38-34.8 397.78-34.8 397.78-26.1 403.63-26.1 403.63-22.65 397.78-22.65 397.78-6.45Q397.88-5.05 398.73-4.38 399.58-3.7 400.73-3.7L400.73-3.7Q402.03-3.7 403.13-4.15 404.23-4.6 404.58-4.8L404.58-4.8ZM502.44 0L498.04 0 498.04-26.1 502.44-26.1 502.44 0ZM502.44-31L498.04-31 498.04-36.5 502.44-36.5 502.44-31ZM559.82-4.8L560.87-1.3Q560.32-1.05 559.37-0.65 558.42-0.25 557.17 0.05 555.92 0.35 554.52 0.35L554.52 0.35Q552.92 0.35 551.57-0.23 550.22-0.8 549.42-2.02 548.62-3.25 548.62-5.1L548.62-5.1 548.62-22.65 545.07-22.65 545.07-26.1 548.62-26.1 548.62-34.8 553.02-34.8 553.02-26.1 558.87-26.1 558.87-22.65 553.02-22.65 553.02-6.45Q553.12-5.05 553.97-4.38 554.82-3.7 555.97-3.7L555.97-3.7Q557.27-3.7 558.37-4.15 559.47-4.6 559.82-4.8L559.82-4.8Z" opacity="1" transform="matrix(1,0,0,1,0,0)" fill="#213555" class="slogan-text-1" data-fill-palette-color="secondary" id="text-1"></path></svg></g></svg></g></svg></g></svg></g></svg></g></svg></g><defs></defs></svg><rect width="395.52" height="146.73142389099394" fill="none" stroke="none" visibility="hidden"></rect></g></svg></g></svg>